<mxfile host="app.diagrams.net" modified="2021-11-01T11:24:00.553Z" agent="5.0 (Windows NT 10.0; Win64; x64) AppleWebKit/537.36 (KHTML, like Gecko) Chrome/95.0.4638.54 Safari/537.36" etag="8bNAEQkkNE8lxd11KEJo" version="15.6.3" type="github">
  <diagram id="pAxe7fO_zSmbPun_YmI4" name="Page-1">
    <mxGraphModel dx="1038" dy="1716" grid="1" gridSize="10" guides="1" tooltips="1" connect="1" arrows="1" fold="1" page="1" pageScale="1" pageWidth="827" pageHeight="1169" math="0" shadow="0">
      <root>
        <mxCell id="0" />
        <mxCell id="1" parent="0" />
        <mxCell id="0Ws_aGE-aThlT3cQW4Rr-1" value="" style="rounded=0;whiteSpace=wrap;html=1;" parent="1" vertex="1">
          <mxGeometry x="190" y="90" width="300" height="160" as="geometry" />
        </mxCell>
        <mxCell id="0Ws_aGE-aThlT3cQW4Rr-24" style="edgeStyle=orthogonalEdgeStyle;rounded=0;orthogonalLoop=1;jettySize=auto;html=1;exitX=0.5;exitY=1;exitDx=0;exitDy=0;entryX=0.5;entryY=0;entryDx=0;entryDy=0;startArrow=classic;startFill=1;" parent="1" source="0Ws_aGE-aThlT3cQW4Rr-2" target="0Ws_aGE-aThlT3cQW4Rr-23" edge="1">
          <mxGeometry relative="1" as="geometry" />
        </mxCell>
        <mxCell id="0Ws_aGE-aThlT3cQW4Rr-2" value="sfc" style="rounded=1;whiteSpace=wrap;html=1;" parent="1" vertex="1">
          <mxGeometry x="315" y="240" width="50" height="20" as="geometry" />
        </mxCell>
        <mxCell id="0Ws_aGE-aThlT3cQW4Rr-3" value="PF" style="rounded=0;whiteSpace=wrap;html=1;fillColor=#f8cecc;strokeColor=#b85450;" parent="1" vertex="1">
          <mxGeometry x="209.5" y="180" width="30" height="20" as="geometry" />
        </mxCell>
        <mxCell id="0Ws_aGE-aThlT3cQW4Rr-4" value="PF1" style="rounded=0;whiteSpace=wrap;html=1;fillColor=#fff2cc;strokeColor=#d6b656;" parent="1" vertex="1">
          <mxGeometry x="285" y="180" width="30" height="20" as="geometry" />
        </mxCell>
        <mxCell id="0Ws_aGE-aThlT3cQW4Rr-5" value="PF2" style="rounded=0;whiteSpace=wrap;html=1;fillColor=#fff2cc;strokeColor=#d6b656;" parent="1" vertex="1">
          <mxGeometry x="325" y="180" width="30" height="20" as="geometry" />
        </mxCell>
        <mxCell id="0Ws_aGE-aThlT3cQW4Rr-7" value="PFn" style="rounded=0;whiteSpace=wrap;html=1;fillColor=#fff2cc;strokeColor=#d6b656;" parent="1" vertex="1">
          <mxGeometry x="405" y="180" width="30" height="20" as="geometry" />
        </mxCell>
        <mxCell id="0Ws_aGE-aThlT3cQW4Rr-8" value="" style="endArrow=none;dashed=1;html=1;entryX=0;entryY=1;entryDx=0;entryDy=0;exitX=0;exitY=0;exitDx=0;exitDy=0;" parent="1" source="0Ws_aGE-aThlT3cQW4Rr-2" target="0Ws_aGE-aThlT3cQW4Rr-3" edge="1">
          <mxGeometry width="50" height="50" relative="1" as="geometry">
            <mxPoint x="210" y="270" as="sourcePoint" />
            <mxPoint x="260" y="220" as="targetPoint" />
          </mxGeometry>
        </mxCell>
        <mxCell id="0Ws_aGE-aThlT3cQW4Rr-9" value="" style="endArrow=none;dashed=1;html=1;entryX=1;entryY=1;entryDx=0;entryDy=0;exitX=1;exitY=0;exitDx=0;exitDy=0;" parent="1" source="0Ws_aGE-aThlT3cQW4Rr-2" target="0Ws_aGE-aThlT3cQW4Rr-7" edge="1">
          <mxGeometry width="50" height="50" relative="1" as="geometry">
            <mxPoint x="370" y="340" as="sourcePoint" />
            <mxPoint x="420" y="290" as="targetPoint" />
          </mxGeometry>
        </mxCell>
        <mxCell id="0Ws_aGE-aThlT3cQW4Rr-11" value="" style="endArrow=none;html=1;entryX=1;entryY=0.5;entryDx=0;entryDy=0;" parent="1" edge="1">
          <mxGeometry width="50" height="50" relative="1" as="geometry">
            <mxPoint x="190" y="154" as="sourcePoint" />
            <mxPoint x="490" y="154" as="targetPoint" />
          </mxGeometry>
        </mxCell>
        <mxCell id="0Ws_aGE-aThlT3cQW4Rr-12" value="Kernel" style="text;html=1;strokeColor=none;fillColor=none;align=center;verticalAlign=middle;whiteSpace=wrap;rounded=0;" parent="1" vertex="1">
          <mxGeometry x="443" y="226" width="40" height="20" as="geometry" />
        </mxCell>
        <mxCell id="0Ws_aGE-aThlT3cQW4Rr-13" value="User" style="text;html=1;strokeColor=none;fillColor=none;align=center;verticalAlign=middle;whiteSpace=wrap;rounded=0;" parent="1" vertex="1">
          <mxGeometry x="443" y="132" width="40" height="20" as="geometry" />
        </mxCell>
        <mxCell id="0Ws_aGE-aThlT3cQW4Rr-18" value="" style="rounded=0;whiteSpace=wrap;html=1;" parent="1" vertex="1">
          <mxGeometry x="352.5" y="-88" width="135" height="130" as="geometry" />
        </mxCell>
        <mxCell id="0Ws_aGE-aThlT3cQW4Rr-19" value="" style="endArrow=none;html=1;entryX=1;entryY=0.68;entryDx=0;entryDy=0;exitX=0;exitY=0.5;exitDx=0;exitDy=0;entryPerimeter=0;" parent="1" edge="1">
          <mxGeometry width="50" height="50" relative="1" as="geometry">
            <mxPoint x="352.5" y="12" as="sourcePoint" />
            <mxPoint x="487.5" y="11.799999999999955" as="targetPoint" />
          </mxGeometry>
        </mxCell>
        <mxCell id="0Ws_aGE-aThlT3cQW4Rr-20" value="Kernel" style="text;html=1;strokeColor=none;fillColor=none;align=center;verticalAlign=middle;whiteSpace=wrap;rounded=0;" parent="1" vertex="1">
          <mxGeometry x="447.5" y="18" width="40" height="20" as="geometry" />
        </mxCell>
        <mxCell id="0Ws_aGE-aThlT3cQW4Rr-21" value="User" style="text;html=1;strokeColor=none;fillColor=none;align=center;verticalAlign=middle;whiteSpace=wrap;rounded=0;" parent="1" vertex="1">
          <mxGeometry x="447.5" y="-8" width="40" height="20" as="geometry" />
        </mxCell>
        <mxCell id="0Ws_aGE-aThlT3cQW4Rr-23" value="低时延交换机" style="rounded=0;whiteSpace=wrap;html=1;" parent="1" vertex="1">
          <mxGeometry x="280" y="320" width="120" height="40" as="geometry" />
        </mxCell>
        <mxCell id="0Ws_aGE-aThlT3cQW4Rr-27" value="" style="endArrow=classic;html=1;dashed=1;" parent="1" target="0Ws_aGE-aThlT3cQW4Rr-28" edge="1">
          <mxGeometry width="50" height="50" relative="1" as="geometry">
            <mxPoint x="420" y="80" as="sourcePoint" />
            <mxPoint x="490" y="60" as="targetPoint" />
          </mxGeometry>
        </mxCell>
        <mxCell id="0Ws_aGE-aThlT3cQW4Rr-28" value="PF直通" style="text;html=1;strokeColor=none;fillColor=none;align=center;verticalAlign=middle;whiteSpace=wrap;rounded=0;" parent="1" vertex="1">
          <mxGeometry x="309.5" y="60" width="53" height="20" as="geometry" />
        </mxCell>
        <mxCell id="TSB7angusZEn2UEh8FW--1" value="&lt;b&gt;....&lt;/b&gt;" style="text;html=1;strokeColor=none;fillColor=none;align=center;verticalAlign=middle;whiteSpace=wrap;rounded=0;" parent="1" vertex="1">
          <mxGeometry x="359" y="180" width="40" height="20" as="geometry" />
        </mxCell>
        <mxCell id="TSB7angusZEn2UEh8FW--2" value="&lt;font face=&quot;Times New Roman&quot;&gt;Onload&lt;br&gt;TCPDirect/EF_VI&lt;/font&gt;" style="rounded=0;whiteSpace=wrap;html=1;fillColor=#d5e8d4;strokeColor=#82b366;" parent="1" vertex="1">
          <mxGeometry x="370" y="-39" width="100" height="30" as="geometry" />
        </mxCell>
        <mxCell id="TSB7angusZEn2UEh8FW--5" value="APP" style="rounded=0;whiteSpace=wrap;html=1;" parent="1" vertex="1">
          <mxGeometry x="369.5" y="-78" width="100" height="30" as="geometry" />
        </mxCell>
        <mxCell id="TSB7angusZEn2UEh8FW--3" style="edgeStyle=orthogonalEdgeStyle;rounded=0;orthogonalLoop=1;jettySize=auto;html=1;exitX=0.5;exitY=0;exitDx=0;exitDy=0;entryX=0.5;entryY=1;entryDx=0;entryDy=0;strokeColor=#FF0000;strokeWidth=1;startArrow=classic;startFill=1;" parent="1" source="0Ws_aGE-aThlT3cQW4Rr-7" target="TSB7angusZEn2UEh8FW--2" edge="1">
          <mxGeometry relative="1" as="geometry" />
        </mxCell>
        <mxCell id="TSB7angusZEn2UEh8FW--6" value="" style="rounded=0;whiteSpace=wrap;html=1;" parent="1" vertex="1">
          <mxGeometry x="192.5" y="-88" width="135" height="130" as="geometry" />
        </mxCell>
        <mxCell id="TSB7angusZEn2UEh8FW--7" value="" style="endArrow=none;html=1;entryX=1;entryY=0.68;entryDx=0;entryDy=0;exitX=0;exitY=0.5;exitDx=0;exitDy=0;entryPerimeter=0;" parent="1" edge="1">
          <mxGeometry width="50" height="50" relative="1" as="geometry">
            <mxPoint x="192.5" y="12" as="sourcePoint" />
            <mxPoint x="327.5" y="11.799999999999955" as="targetPoint" />
          </mxGeometry>
        </mxCell>
        <mxCell id="TSB7angusZEn2UEh8FW--8" value="&lt;font style=&quot;font-size: 11px&quot;&gt;Kernel&lt;/font&gt;" style="text;html=1;strokeColor=none;fillColor=none;align=center;verticalAlign=middle;whiteSpace=wrap;rounded=0;" parent="1" vertex="1">
          <mxGeometry x="287.5" y="18" width="40" height="20" as="geometry" />
        </mxCell>
        <mxCell id="TSB7angusZEn2UEh8FW--9" value="&lt;font style=&quot;font-size: 10px&quot;&gt;User&lt;/font&gt;" style="text;html=1;strokeColor=none;fillColor=none;align=center;verticalAlign=middle;whiteSpace=wrap;rounded=0;" parent="1" vertex="1">
          <mxGeometry x="287.5" y="-8" width="40" height="20" as="geometry" />
        </mxCell>
        <mxCell id="TSB7angusZEn2UEh8FW--13" style="edgeStyle=orthogonalEdgeStyle;rounded=0;orthogonalLoop=1;jettySize=auto;html=1;exitX=0.5;exitY=1;exitDx=0;exitDy=0;entryX=0.5;entryY=0;entryDx=0;entryDy=0;startArrow=classic;startFill=1;strokeColor=#FF0000;strokeWidth=1;" parent="1" source="TSB7angusZEn2UEh8FW--10" target="TSB7angusZEn2UEh8FW--12" edge="1">
          <mxGeometry relative="1" as="geometry" />
        </mxCell>
        <mxCell id="TSB7angusZEn2UEh8FW--10" value="&lt;font style=&quot;font-size: 6px&quot; face=&quot;Times New Roman&quot;&gt;Onload&lt;br style=&quot;font-size: 6px&quot;&gt;TCPDirect/EF_VI&lt;/font&gt;" style="rounded=0;whiteSpace=wrap;html=1;fillColor=#d5e8d4;strokeColor=#82b366;" parent="1" vertex="1">
          <mxGeometry x="210" y="-39" width="100" height="30" as="geometry" />
        </mxCell>
        <mxCell id="TSB7angusZEn2UEh8FW--11" value="APP" style="rounded=0;whiteSpace=wrap;html=1;" parent="1" vertex="1">
          <mxGeometry x="209.5" y="-78" width="100" height="30" as="geometry" />
        </mxCell>
        <mxCell id="TSB7angusZEn2UEh8FW--12" value="PF0" style="rounded=0;whiteSpace=wrap;html=1;fillColor=#fff2cc;strokeColor=#d6b656;" parent="1" vertex="1">
          <mxGeometry x="245" y="180" width="30" height="20" as="geometry" />
        </mxCell>
        <mxCell id="TSB7angusZEn2UEh8FW--14" value="" style="endArrow=classic;html=1;dashed=1;entryX=0;entryY=0.5;entryDx=0;entryDy=0;" parent="1" target="0Ws_aGE-aThlT3cQW4Rr-28" edge="1">
          <mxGeometry width="50" height="50" relative="1" as="geometry">
            <mxPoint x="260" y="80" as="sourcePoint" />
            <mxPoint x="470" y="60" as="targetPoint" />
          </mxGeometry>
        </mxCell>
      </root>
    </mxGraphModel>
  </diagram>
</mxfile>
